[Header]
FileType HTR
DataType HTRS
FileVersion 1
NumSegments 22
NumFrames 5
DataFrameRate 24
EulerRotationOrder ZYX
CalibrationUnits mm
RotationUnits Degrees
GlobalAxisofGravity Y
BoneLengthAxis Y
ScaleFactor 1.0
[SegmentNames&Hierarchy]
reference	GLOBAL
Hips	reference
Spine	Hips
Spine1	Spine
Neck	Spine1
Head	Neck
LeftShoulder	Spine1
LeftArm	LeftShoulder
LeftForeArm	LeftArm
LeftHand	LeftForeArm
RightShoulder	Spine1
RightArm	RightShoulder
RightForeArm	RightArm
RightHand	RightForeArm
LeftUpLeg	Hips
LeftLeg	LeftUpLeg
LeftFoot	LeftLeg
LeftToeBase	LeftFoot
RightUpLeg	Hips
RightLeg	RightUpLeg
RightFoot	RightLeg
RightToeBase	RightFoot
[BasePosition]
reference	0	0	0	0	0	0	1
Hips	0	0	0	0	0	0	1
Spine	0	0	0	0	-0	90	1
Spine1	0	0	0	0	0	0	1
Neck	0	0	0	-7.352430803	-7.352430803	90	1
Head	0	0	0	0	-0	90	1
LeftShoulder	0	0	0	0	0	0	1
LeftArm	0	0	0	0	0	0	1
LeftForeArm	0	0	0	0	0	0	1
LeftHand	0	0	0	0	0	0	1
RightShoulder	0	0	0	0	-0	180	1
RightArm	0	0	0	0	-0	180	1
RightForeArm	0	0	0	0	-0	180	1
RightHand	0	0	0	0	-0	180	1
LeftUpLeg	0	0	0	0	-0	-90	1
LeftLeg	0	0	0	0	-0	-90	1
LeftFoot	0	0	0	66.57150701	-66.57150701	-90	1
LeftToeBase	0	0	0	0	-90	0	1
RightUpLeg	0	0	0	0	-0	-90	1
RightLeg	0	0	0	0	-0	-90	1
RightFoot	0	0	0	66.57150701	-66.57150701	-90	1
RightToeBase	0	0	0	0	-90	0	1
[reference]
46	0	0	0	0	-0	0	1.0
47	0	0	0	0	-0	0	1.0
48	0	0	0	0	-0	0	1.0
49	0	0	0	0	-0	0	1.0
50	0	0	0	0	-0	0	1.0
[Hips]
46	0.9158143401	9.307853699	-0.8098273873	37.8016243	-26.91752815	-54.59902191	1.0
47	0.7434979677	9.242807388	-0.9055917859	37.82664108	-28.05875015	-53.40868759	1.0
48	0.6685589552	9.214504242	-1.01384902	37.89255524	-30.87052536	-52.8243103	1.0
49	0.655741632	9.186138153	-1.036564231	38.54579163	-31.66349792	-48.38990784	1.0
50	0.6465690732	9.142154694	-1.046391249	34.51848221	-33.88568878	-41.81747437	1.0
[Spine]
46	0	0.7478299737	0	-6.697062492	-10.67626381	-86.32125854	1.0
47	0	0.7478299737	0	-8.114192963	-11.16402817	-86.52017975	1.0
48	0	0.7478299737	0	-8.023450851	-11.1986351	-87.36985779	1.0
49	0	0.7478299737	0	-10.17995834	-12.46553326	-86.77840424	1.0
50	0	0.7478299737	0	-9.82239151	-12.67917538	-87.59536743	1.0
[Spine1]
46	0	2.049309969	0	7.522380829	-4.616959095	14.94250679	1.0
47	0	2.049309969	0	8.634877205	-4.832230091	13.75244904	1.0
48	0	2.049309969	0	9.330105782	-4.841215611	13.32183456	1.0
49	0	2.049309969	0	9.928272247	-5.279609203	11.92633533	1.0
50	0	2.049309969	0	9.845580101	-5.118823528	9.33481884	1.0
[Neck]
46	0	2.231709957	0	14.11692238	-14.32510757	-54.67740631	1.0
47	0	2.231709957	0	12.63464165	-13.33546162	-56.9197998	1.0
48	0	2.231709957	0	10.27676582	-11.83644676	-58.72438812	1.0
49	0	2.231709957	0	8.554243088	-11.13617802	-61.63874817	1.0
50	0	2.231709957	0	8.914315224	-11.90705967	-65.26578522	1.0
[Head]
46	0	1.413589954	0.1823999882	-14.74503231	-14.625947	-90.90044403	1.0
47	0	1.413589954	0.1823999882	-13.59288406	-14.58433151	-91.3704834	1.0
48	0	1.413589954	0.1823999882	-11.90541553	-14.13247013	-92.72271729	1.0
49	0	1.413589954	0.1823999882	-12.13456059	-14.35861015	-93.54201508	1.0
50	0	1.413589954	0.1823999882	-15.03303242	-15.56590843	-91.49964905	1.0
[LeftShoulder]
46	0.3649300039	1.825889945	-0.04271000251	-13.43456459	-22.68775558	11.52394485	1.0
47	0.3649300039	1.825889945	-0.04271000251	-15.4217329	-20.66430473	12.76444149	1.0
48	0.3649300039	1.825889945	-0.04271000251	-15.08171082	-19.49720764	13.01850128	1.0
49	0.3649300039	1.825889945	-0.04271000251	-14.43196774	-18.3885231	13.09863281	1.0
50	0.3649300039	1.825889945	-0.04271000251	-12.70483303	-16.89469528	12.43617249	1.0
[LeftArm]
46	1.24003005	0	0	67.80400848	-29.07894516	-86.99867249	1.0
47	1.24003005	0	0	65.45774841	-27.92362595	-84.89208221	1.0
48	1.24003005	0	0	61.53752136	-25.65610313	-80.46591949	1.0
49	1.24003005	0	0	58.42739487	-23.26378632	-76.49215698	1.0
50	1.24003005	0	0	54.56792831	-21.09835815	-73.74303436	1.0
[LeftForeArm]
46	2.847419977	0	0	394.3900146	-83.23154449	-385.2477112	1.0
47	2.847419977	0	0	479.7356262	-86.1915741	-471.3072205	1.0
48	2.847419977	0	0	526.5605469	-80.38593292	-518.076355	1.0
49	2.847419977	0	0	534.1548462	-77.7747879	-526.5075073	1.0
50	2.847419977	0	0	526.5742188	-77.78610229	-520.1635742	1.0
[LeftHand]
46	2.258270025	0	0	10.30221939	-13.79467106	13.1572361	1.0
47	2.258270025	0	0	11.11639309	-12.86662674	7.765053272	1.0
48	2.258270025	0	0	11.79428864	-11.43148041	5.953347206	1.0
49	2.258270025	0	0	10.14429283	-12.4136076	6.45085907	1.0
50	2.258270025	0	0	10.33489609	-12.69884872	6.32404995	1.0
[RightShoulder]
46	-0.3646599948	1.825889945	-0.04271000251	-2.060201168	-1.563256025	178.5356598	1.0
47	-0.3646599948	1.825889945	-0.04271000251	-3.533115387	-1.569335699	178.3059692	1.0
48	-0.3646599948	1.825889945	-0.04271000251	-4.421269417	-1.417714238	177.7459412	1.0
49	-0.3646599948	1.825889945	-0.04271000251	-3.107336283	-0.5888390541	178.2257385	1.0
50	-0.3646599948	1.825889945	-0.04271000251	-4.15651989	0.9109173417	178.1325684	1.0
[RightArm]
46	-1.24003005	0	0	36.51840591	2.769552708	-147.1872864	1.0
47	-1.24003005	0	0	37.52194214	0.1418219507	-142.5476227	1.0
48	-1.24003005	0	0	43.02848053	-0.4612354934	-136.9189148	1.0
49	-1.24003005	0	0	41.74247742	1.444423914	-134.8227539	1.0
50	-1.24003005	0	0	44.12567902	1.296648741	-132.5463104	1.0
[RightForeArm]
46	-2.847419977	0	0	-193.2607574	66.65707397	-33.59318924	1.0
47	-2.847419977	0	0	-186.7950439	64.80999756	-29.41736603	1.0
48	-2.847419977	0	0	-170.0486603	65.77449036	-14.66741085	1.0
49	-2.847419977	0	0	-172.4292297	66.26729584	-16.30908203	1.0
50	-2.847419977	0	0	-171.2939758	69.21362305	-16.45911789	1.0
[RightHand]
46	-2.258270025	0	0	31.4705677	20.45397949	155.0010986	1.0
47	-2.258270025	0	0	33.29964066	20.79079819	153.9503021	1.0
48	-2.258270025	0	0	27.9549942	20.55500412	155.3290863	1.0
49	-2.258270025	0	0	27.40731049	20.88522148	153.6988831	1.0
50	-2.258270025	0	0	27.76112747	19.79813385	153.8445435	1.0
[LeftUpLeg]
46	0.9119900465	0	0	-4.717036247	29.85778046	126.3463593	1.0
47	0.9119900465	0	0	-5.163165092	25.57075882	125.214859	1.0
48	0.9119900465	0	0	-4.125353813	23.79116821	127.8086395	1.0
49	0.9119900465	0	0	-10.01436424	37.37037659	120.9242172	1.0
50	0.9119900465	0	0	-10.47814369	40.05718613	112.8876343	1.0
[LeftLeg]
46	0	-4.371409893	0	-0.6928977966	19.76003265	88.00035095	1.0
47	0	-4.371409893	0	-0.7826151848	20.29719543	88.98323822	1.0
48	0	-4.371409893	0	1.918759346	17.08245277	84.4504776	1.0
49	0	-4.371409893	0	5.204790115	9.542069435	84.37905884	1.0
50	0	-4.371409893	0	4.181587219	8.547674179	84.86021423	1.0
[LeftFoot]
46	0	-3.918009996	0	-108.657402	121.9022827	-62.89642334	1.0
47	0	-3.918009996	0	-99.97424316	125.1061096	-51.82327652	1.0
48	0	-3.918009996	0	-90.92179108	127.9394531	-39.54238129	1.0
49	0	-3.918009996	0	-97.79431152	124.9819031	-47.29876709	1.0
50	0	-3.918009996	0	-103.3444214	124.4143219	-54.33244705	1.0
[LeftToeBase]
46	0	-0.5927900076	1.367989898	0	0	0	1.0
47	0	-0.5927900076	1.367989898	0	0	0	1.0
48	0	-0.5927900076	1.367989898	0	0	0	1.0
49	0	-0.5927900076	1.367989898	0	0	0	1.0
50	0	-0.5927900076	1.367989898	0	0	0	1.0
[RightUpLeg]
46	-0.9119900465	0	0	-75.46552277	-26.79683685	70.611763	1.0
47	-0.9119900465	0	0	-79.75152588	-23.06440735	71.73193359	1.0
48	-0.9119900465	0	0	-84.90849304	-14.13669968	93.23578644	1.0
49	-0.9119900465	0	0	-84.70869446	-6.836110115	116.1613235	1.0
50	-0.9119900465	0	0	-75.4560318	-5.040333271	114.6651077	1.0
[RightLeg]
46	0	-4.371409893	0	97.23531342	29.02449226	60.72628403	1.0
47	0	-4.371409893	0	139.2445374	19.91147614	82.10891724	1.0
48	0	-4.371409893	0	153.9647827	12.84901333	84.19091034	1.0
49	0	-4.371409893	0	145.8572388	13.14963341	92.89051056	1.0
50	0	-4.371409893	0	124.0664139	19.94332314	83.64346313	1.0
[RightFoot]
46	0	-3.918009996	0	38.35207367	63.75698471	84.46671295	1.0
47	0	-3.918009996	0	21.52536774	55.8134079	66.82363892	1.0
48	0	-3.918009996	0	15.07285309	56.09395218	52.38583374	1.0
49	0	-3.918009996	0	23.50274086	59.94631958	63.90660095	1.0
50	0	-3.918009996	0	43.02711487	60.77331543	84.32174683	1.0
[RightToeBase]
46	0	-0.5927900076	1.367989898	0	0	0	1.0
47	0	-0.5927900076	1.367989898	0	0	0	1.0
48	0	-0.5927900076	1.367989898	0	0	0	1.0
49	0	-0.5927900076	1.367989898	0	0	0	1.0
50	0	-0.5927900076	1.367989898	0	0	0	1.0
[EndOfFile]
